<?xml version="1.0" standalone="no"?>
<!DOCTYPE svg PUBLIC "-//W3C//DTD SVG 20010904//EN"
 "http://www.w3.org/TR/2001/REC-SVG-20010904/DTD/svg10.dtd">
<svg version="1.0" xmlns="http://www.w3.org/2000/svg"
 width="1160.000000pt" height="1160.000000pt" viewBox="0 0 1160.000000 1160.000000"
 preserveAspectRatio="xMidYMid meet">
<metadata>
Created by potrace 1.14, written by Peter Selinger 2001-2017
</metadata>
<g transform="translate(0.000000,1160.000000) scale(0.100000,-0.100000)"
fill="#000000" stroke="none">
<path d="M6396 9623 c-3 -3 -76 -7 -163 -9 -87 -1 -169 -5 -183 -8 -14 -3 -41
-7 -60 -10 -70 -9 -115 -17 -130 -22 -8 -3 -28 -8 -45 -11 -123 -19 -603 -160
-630 -184 -5 -5 -15 -9 -22 -9 -18 0 -316 -131 -324 -143 -3 -5 -8 -8 -10 -7
-4 2 -101 -42 -109 -50 -3 -3 -25 -15 -50 -28 -25 -12 -61 -32 -82 -45 -85
-52 -154 -92 -163 -96 -5 -2 -12 -7 -15 -10 -3 -3 -39 -28 -80 -56 -161 -108
-340 -249 -504 -399 -294 -268 -510 -524 -711 -843 -41 -65 -79 -123 -85 -130
-5 -7 -10 -19 -10 -28 0 -8 -3 -15 -7 -15 -5 0 -13 -10 -19 -23 -5 -12 -36
-70 -67 -129 -31 -59 -57 -113 -57 -119 0 -7 -6 -20 -13 -28 -8 -9 -38 -77
-69 -151 -65 -158 -70 -172 -73 -185 -2 -5 -15 -39 -29 -75 -40 -100 -43 -101
-304 -105 -236 -4 -279 -7 -402 -29 -14 -3 -43 -7 -65 -11 -62 -9 -162 -33
-255 -61 -47 -15 -87 -26 -90 -26 -3 0 -14 -5 -25 -11 -11 -6 -22 -12 -25 -12
-23 -4 -122 -46 -220 -94 -94 -46 -232 -131 -325 -201 -22 -16 -51 -37 -65
-47 -14 -10 -38 -30 -55 -44 -75 -67 -93 -83 -135 -123 -89 -85 -211 -223
-272 -307 -17 -24 -34 -46 -37 -49 -49 -41 -271 -456 -271 -505 0 -8 -5 -15
-12 -15 -6 0 -9 -3 -6 -6 4 -3 -5 -38 -19 -77 -14 -40 -26 -81 -27 -92 -2 -11
-8 -38 -14 -60 -11 -39 -13 -51 -26 -125 -3 -19 -8 -48 -11 -65 -15 -84 -20
-194 -20 -435 0 -293 6 -393 32 -490 3 -14 6 -28 5 -31 -1 -4 7 -36 18 -73 10
-36 16 -66 13 -66 -3 0 -1 -6 5 -12 6 -7 11 -17 11 -23 6 -58 112 -316 183
-444 32 -58 58 -108 58 -113 0 -4 5 -8 10 -8 6 0 10 -7 10 -15 0 -8 3 -15 8
-15 4 0 16 -16 26 -35 11 -19 23 -35 28 -35 4 0 8 -5 8 -11 0 -5 26 -42 57
-82 134 -169 283 -315 461 -452 7 -5 19 -16 27 -22 7 -7 16 -13 20 -13 3 0 14
-8 25 -18 11 -10 68 -47 127 -82 59 -35 116 -71 127 -79 10 -9 19 -15 20 -13
0 2 35 -12 76 -31 41 -18 89 -38 105 -44 17 -6 39 -14 50 -19 11 -4 25 -8 30
-10 6 -2 29 -10 52 -18 22 -8 53 -17 68 -20 15 -3 41 -9 58 -15 18 -5 50 -12
72 -15 22 -3 55 -8 73 -11 17 -3 45 -7 61 -9 17 -2 34 -7 40 -10 5 -4 12 -2
16 4 4 6 11 8 16 5 18 -12 743 -7 773 5 16 6 45 13 65 16 48 6 132 24 151 31
8 4 17 7 20 8 3 1 18 7 33 13 16 7 32 12 36 12 5 0 20 9 34 20 15 12 30 21 34
22 26 3 100 62 198 158 393 384 4345 4353 4340 4358 -4 4 -210 8 -458 9 -249
0 -477 2 -507 2 -30 1 -101 0 -158 -1 -56 -2 -102 0 -102 3 0 4 -19 2 -41 -4
-37 -9 -140 -109 -920 -891 -484 -484 -879 -881 -879 -881 -5 -10 -1916 -1918
-1931 -1928 -13 -9 -43 -18 -66 -21 -24 -3 -60 -8 -82 -11 -127 -18 -269 -22
-356 -11 -60 8 -190 31 -205 36 -3 1 -9 3 -15 4 -5 1 -21 5 -35 9 -14 4 -43
13 -65 19 -22 6 -44 15 -50 20 -5 4 -15 8 -23 8 -8 0 -61 23 -119 50 -93 45
-164 90 -256 162 -42 32 -155 146 -185 187 -15 20 -30 38 -33 41 -10 8 -89
131 -89 138 0 4 -9 18 -20 32 -11 14 -20 33 -20 43 0 9 -4 17 -9 17 -5 0 -11
8 -14 18 -3 9 -20 51 -37 92 -45 108 -85 235 -95 305 -1 11 -6 43 -11 70 -15
96 -7 406 13 438 2 4 7 20 9 35 15 83 132 370 156 380 5 2 6 8 2 13 -3 5 -1 9
4 9 5 0 14 12 21 26 23 51 149 211 228 289 123 122 255 210 428 286 27 12 56
23 65 24 8 2 16 4 18 5 1 2 7 4 12 5 6 1 12 4 15 5 3 1 8 3 13 5 4 1 14 4 22
8 12 5 101 23 195 41 118 22 225 26 710 25 209 0 416 0 460 0 78 0 127 10 139
29 6 10 16 61 21 107 2 17 7 46 10 65 4 19 8 44 9 55 2 11 6 34 10 50 3 17 9
40 11 53 10 44 13 58 25 102 7 25 13 50 14 55 17 77 104 326 152 435 39 87
156 314 170 327 7 8 14 20 14 27 0 7 10 23 23 36 12 14 20 25 18 25 -7 0 29
56 53 83 12 13 19 24 16 25 -2 1 18 34 45 72 206 293 487 583 759 782 39 29
76 57 83 62 6 6 35 25 65 43 29 17 55 35 58 38 3 3 28 19 55 34 28 16 73 42
100 57 51 29 236 122 245 124 3 0 10 3 15 7 13 8 216 89 230 92 6 1 20 8 33
14 12 7 22 10 22 7 0 -2 17 2 38 10 96 38 409 112 552 131 153 20 212 25 340
29 69 2 127 5 130 6 3 1 10 0 15 -1 6 -1 64 -4 130 -6 133 -4 202 -9 255 -18
19 -3 53 -8 75 -10 22 -3 49 -7 60 -10 11 -2 42 -7 69 -10 27 -4 53 -9 56 -11
6 -4 20 -7 95 -20 17 -3 44 -10 60 -15 17 -5 41 -11 55 -14 37 -6 350 -112
407 -137 26 -12 64 -28 83 -36 69 -30 266 -130 307 -156 24 -15 45 -27 48 -27
6 0 131 -82 235 -154 58 -41 198 -152 215 -171 6 -6 21 -18 34 -28 52 -35 280
-268 378 -387 32 -37 115 -147 148 -194 101 -144 128 -160 275 -155 36 1 297
-18 358 -27 71 -9 128 -19 182 -29 14 -3 39 -8 55 -11 17 -3 75 -17 130 -31
55 -14 107 -27 115 -28 8 -2 15 -4 15 -5 0 -1 8 -3 17 -5 17 -3 17 -2 -4 60
-44 128 -175 390 -281 560 -82 132 -223 329 -299 417 -13 15 -36 44 -53 65
-101 125 -343 366 -490 488 -33 28 -62 53 -65 56 -13 16 -261 199 -269 199 -5
0 -11 3 -13 8 -4 8 -117 84 -208 138 -36 21 -67 41 -70 44 -3 3 -27 17 -55 30
-27 14 -52 28 -55 31 -6 7 -256 129 -320 156 -25 11 -65 28 -90 38 -25 10 -60
24 -78 32 -36 16 -166 62 -192 68 -8 2 -51 15 -95 30 -72 23 -248 71 -300 81
-11 2 -45 9 -75 16 -30 6 -62 12 -70 13 -8 2 -28 5 -45 8 -53 11 -119 20 -147
21 -16 1 -28 3 -28 6 0 3 -12 5 -27 6 -16 0 -57 4 -93 9 -36 4 -87 10 -115 12
-70 6 -663 11 -669 6z"/>
<path d="M8273 6648 c-19 -7 -77 -57 -150 -130 -65 -65 -198 -198 -296 -296
-98 -97 -370 -368 -603 -602 -234 -234 -1145 -1146 -2026 -2028 -881 -881
-1599 -1604 -1596 -1607 10 -10 1340 -8 1347 2 3 6 16 14 29 18 24 7 1081
1061 1616 1610 165 170 693 701 1171 1181 767 767 877 873 920 890 45 17 78
19 330 19 288 -1 345 -4 500 -30 11 -2 32 -8 48 -14 15 -6 27 -9 27 -6 0 9
206 -68 273 -102 60 -30 172 -98 187 -113 3 -3 21 -17 40 -31 124 -94 249
-229 333 -362 64 -101 146 -289 167 -387 5 -19 10 -44 13 -55 16 -65 29 -191
29 -279 0 -101 -9 -233 -17 -246 -2 -4 -7 -25 -9 -47 -3 -22 -10 -53 -16 -69
-6 -16 -11 -31 -11 -34 2 -16 -48 -148 -87 -230 -94 -195 -215 -345 -398 -493
-39 -31 -75 -57 -79 -57 -5 0 -16 -6 -24 -14 -34 -30 -206 -118 -273 -140 -68
-22 -99 -29 -173 -41 -16 -2 -636 -5 -1376 -5 l-1346 0 -49 -25 c-36 -18 -161
-137 -476 -452 -388 -388 -428 -431 -428 -461 0 -18 5 -32 13 -33 56 -4 3790
2 3817 6 19 2 55 7 80 10 97 13 119 18 240 62 337 120 674 330 895 558 112
116 143 152 224 261 45 60 86 114 91 121 6 7 10 17 10 23 0 5 5 10 10 10 6 0
10 5 10 10 0 6 12 29 27 53 14 23 25 42 22 42 -2 0 6 14 18 30 33 47 149 305
136 305 -3 0 -1 6 5 13 8 10 17 35 37 107 1 3 6 23 13 45 6 22 13 51 16 65 2
14 9 45 14 70 11 46 17 99 27 230 9 103 9 442 1 515 -4 33 -9 85 -11 115 -4
54 -21 136 -51 253 -9 32 -17 66 -19 75 -2 9 -20 64 -40 122 -20 58 -37 111
-39 118 -1 7 -8 18 -14 24 -7 7 -12 18 -12 26 0 14 -76 171 -119 246 -48 84
-133 207 -196 288 -68 85 -274 293 -334 338 -19 14 -40 31 -47 38 -7 6 -17 12
-23 12 -6 0 -11 4 -11 8 0 9 -204 152 -216 152 -4 0 -15 6 -23 14 -17 15 -234
126 -286 146 -67 27 -161 61 -175 65 -8 2 -54 15 -101 29 -48 13 -102 26 -120
29 -19 3 -43 8 -54 10 -11 3 -45 8 -75 12 -30 5 -64 10 -75 12 -53 9 -1233 10
-1262 1z"/>
</g>
</svg>
